<?xml version="1.0" encoding="UTF-8"?>
<!-- Generator: Adobe Illustrator 18.0.0, SVG Export Plug-In . SVG Version: 6.00 Build 0)  -->
<!DOCTYPE svg PUBLIC "-//W3C//DTD SVG 1.1//EN" "http://www.w3.org/Graphics/SVG/1.1/DTD/svg11.dtd">
<svg version="1.1" id="Ebene_1" xmlns="http://www.w3.org/2000/svg" xmlns:xlink="http://www.w3.org/1999/xlink" x="0px" y="0px" viewBox="0 0 87 99" enable-background="new 0 0 87 99" xml:space="preserve">
<g>
	<path fill="#FFFFFF" d="M86.6,49.5C86.7,49.5,86.6,49.5,86.6,49.5c0.1-0.3,0.2-0.5,0.2-0.8c0-0.2,0-0.4-0.1-0.6   c-0.1-0.1-0.1-0.2-0.2-0.3c0.1-0.2,0.2-0.6,0.2-0.6c0-0.1,0-0.2,0-0.3c0-0.4-0.2-0.8-0.6-1.1c-0.5-0.3-1.1-0.3-1.6,0   c-0.4,0.2-0.6,0.7-0.9,1.1c-0.2-0.2-0.3-0.3-0.6-0.2c-0.4,0.1-0.4,0.2-0.7,0.7c-1.2,1.7-2.8,4.5-4.6,4.6c-0.4,0-0.5-0.2-1-0.9   c-3.9-6.3-8.7-10-15.1-14.5c-0.4-0.3-1.2-1.6-2-2.8c-1.4-2.1-2.9-4.5-4.4-5.6c-1.2-0.9-2.5-1.3-3.7-1.8c-1.5-0.5-2.9-1-4.1-2.2   c-0.5-0.5-1-1.2-1.5-1.9c-1.1-1.6-2.4-3.5-5-5.1c0.1-0.4,0.1-0.9,0.1-1.5c0-0.8-0.2-2-0.6-2.6c-0.3-0.5-0.7-0.8-1.1-0.9   c-0.7-0.2-1.8,0.1-2.6,0.4c1.5-4.5,5-7.4,6.9-8.9c1-0.8,1.6-1.3,1.6-2c0-0.1,0-0.2,0-0.3C45.2,0.1,43.8,0,43.2,0l-0.1,0   c-0.8,0-3.3,0.1-5.1,1.4c-0.5,0.1-1,0.4-1.4,0.6c0-0.1,0-0.2-0.1-0.2c-0.2-0.5-0.8-0.9-1.7-0.8c-1.8,0.3-2.8,0.7-3.5,1.1   c0,0-0.2,0.1-0.2,0.1c-0.6,0.4-1.6,1-2.4,2.5c-0.7,0.5-1.5,1.3-1.8,2.6c-0.8,0.5-1.4,1.4-1.4,2.6c-0.5,0.6-0.8,1.2-0.9,1.8   c-0.8-0.7-1.7-1.1-2.7-1.3l-0.1,0l-0.1,0c-0.3,0-1,0-1.6,0.5L20.1,11L20,11.2c-0.1,0.2-0.1,0.4-0.1,0.5c0,0.4,0.2,0.8,0.3,0.9   l0.1,0.1c0,0,0.2,0.9,0.2,0.9l0.1,0.9c0.3,1.5,0.9,2.3,1.8,3c-0.2,0.5-0.3,1-0.3,1.5c0,0.7,0.2,1.3,0.4,1.9c0,0,0,0.1,0.1,0.2   c0,0.1,0,0.2,0,0.3c0,1-0.4,3.1-0.7,4.3c0,0-0.1,0.4-0.1,0.4c-0.2,0.7-0.7,2.1-0.7,3.5c0,0.5,0.1,1.1,0.2,1.6c0.3,0.9,1,2,2,2.5   c0,0,0.6,0.2,0.6,0.2c0.5,0.2,0.6,0.2,0.9,0.6c0.2,0.3,0.3,1.2,0.3,2.1c0,0.7,0,1.4-0.1,1.9l0,0.1c0,0,0,0.1,0,0.1   c0,0.5,0.3,1,0.8,1.2c0.4,0.2,1,0.1,1.6-0.4c0.3-0.3,0.6-0.7,0.9-1.1c0.1,0.1,0.1,0.2,0.2,0.3l0,0l0,0c0.2,0.1,0.4,0.2,0.6,0.2   c-0.6,0.4-1.4,0.9-2.4,1.5c-6,0.9-9.9,3.1-10.7,5.8C6.1,50.9,0,60.6,0,71.2C0,86.5,12.4,99,27.7,99C43,99,55.5,86.5,55.5,71.2   c0-3.6-0.7-7.1-2.1-10.4c0.1,0,0.2-0.1,0.4-0.2c0.1,0.1,0.2,0.2,0.2,0.2c0.3,0.4,1,0.9,1.6,0.9c0.6,0,0.9-0.1,0.9-0.1s0,0,0.1,0   c0,0.1,0.3,0.5,0.3,0.5c0.5,0.8,1.4,0.8,1.9,0.8c0.3,0,0.5,0,0.8,0.1c0.3,0.1,0.4,0.5,0.5,1.4l0.1,0.6c0.2,0.7,0.5,1,0.8,1.2   c0,0,0,0,0,0c0,0.2,0.2,0.9,0.2,0.9c0.1,0.7,0.2,1.6,1,1.9c0,0,0,0,0.1,0c0.1,0.6,0.2,1.4,0.9,1.8c0.2,0.1,0.4,0.1,0.6,0.1   c0,0,0,0.1,0,0.1c0.2,0.9,0.9,1.2,1.2,1.3c0,0,0,0,0,0c0,0.1,0.5,0.8,0.5,0.8c0.3,0.5,0.6,1.1,1,1.4l0.2,0.1l0.2,0.1   c0.1,0,0.2,0,0.3,0c0.9,1.2,3.4,4.9,3.4,8.4c0,0.2,0,0.3,0,0.5c-0.2,2.4-1.1,3.6-1.8,4.4c-0.7,0.9-0.8,2-0.8,2.4v0.1   c0.1,1,0.6,1.4,1,1.6c0.4,0.2,1.6,0.7,3.2,0c1.3-0.6,1.6-1.6,1.8-2.3c0.1-0.3,0.1-0.5,0.2-0.6c0.6-0.6,1.4-1.5,1.4-2.9   c0-0.1,0-0.2,0-0.4c0-1.2-0.4-2.7-0.8-4.1c-0.2-0.6-0.4-1.9-0.4-3.2c0.5,0.7,1,1.5,1.2,1.9l0.1,0.2c0.3,0.6,1.3,2.3,1.3,4   c0,0.2,0,0.4,0,0.5c-0.2,1.1-0.5,1.8-0.9,2.5c-0.4,0.8-0.9,1.6-1.2,3.1c0,0.2,0,0.4,0,0.6c0,0.8,0.3,1.4,0.8,1.9   c0.8,0.6,1.9,0.8,3.1,0.3c1.5-0.5,2.6-2.3,2.9-4.6c0.2-0.1,0.4-0.3,0.4-0.3c0.4-0.4,0.5-0.9,0.5-1.4c0-0.4-0.1-0.7-0.1-0.8   c-0.8-3.3-1-4.9-1-6.1c0-0.3,0-0.7,0-1l-0.1-2.8c-0.1-0.9-0.5-1.5-0.9-1.9c-0.2-0.2-0.6-0.7-0.6-0.7c-0.4-0.4-1-1-1.1-1.5   c-0.2-0.6-0.2-1.4-0.2-2.3c0-1.6,0.2-3.4,0.4-5.2c0.2-1.9,0.4-3.8,0.4-5.5c0-0.7,0-1.4-0.1-2c4.5,0.1,6.6-4.5,7.3-6.1l0.1-0.3   c0.1-0.3,0.2-0.6,0.2-0.9C87,50,86.8,49.7,86.6,49.5 M31.9,33.6c0.1-0.5,0.1-0.8,0.2-1.2c0.1,0,0.2,0.1,0.4,0.1   c0.1,0.8,0.6,1.2,0.9,1.4c0,0,0.2,0.9,0.2,0.9c0,0,0,0.1,0.1,0.1c-0.3,0.2-0.6,0.5-1,0.9L32,36.3c-0.6,0.5-1,0.9-1.5,1.3   C31.2,36.4,31.7,34.8,31.9,33.6"/>
	<path fill="#FFFFFF" d="M80.7,74.9C80.7,74.9,80.7,74.9,80.7,74.9c0.1,0.1,0.1,0.2,0.1,0.2L80.7,74.9z"/>
	<path fill="#E20613" d="M1.1,71.2c0-14.8,11.9-26.7,26.7-26.7c14.7,0,26.7,12,26.7,26.7c0,14.8-11.9,26.7-26.7,26.7   C13,97.9,1.1,86,1.1,71.2"/>
	<path fill="#FFFFFF" d="M4.3,71.2c0-13,10.5-23.5,23.5-23.5c13,0,23.5,10.5,23.5,23.5c0,13-10.5,23.5-23.5,23.5   C14.8,94.7,4.3,84.2,4.3,71.2"/>
	<path fill="#E20613" d="M6,71.2c0-12,9.7-21.8,21.7-21.8c12,0,21.7,9.7,21.7,21.8c0,12-9.7,21.8-21.7,21.8C15.8,93,6,83.2,6,71.2"/>
	<path fill="#1D1D1B" d="M50.6,57.2c-0.4-0.5-0.9-1.1-0.9-1.1c-4.8-7-12.9-11.6-22-11.6l0,0.1c-0.4,0.1-0.7,0.3-1.2,0.6   c-0.8,0.4-1.7,0.5-2.5,0.5c-0.7,0-0.2-0.9-0.6-0.7c-0.5,0.1-1.5,0.5-2,0.8c0,1-3.2,2.1-4.9,1.3c0.2-2.5,4.3-4.6,10.2-5.5   c3.7-2.2,4.2-2.8,6.6-4.9c1.1-1,1.6-1.4,1.9-1.4c0.2-0.1,0-0.2-0.1-0.2c-0.3-0.1-0.5-0.4-0.6-0.6c-0.2-0.4-0.1-0.9-0.3-1.1   c-0.3-0.2-0.7-0.4-0.8-0.9c0-0.3,0-0.7-0.4-0.7c-0.5,0-0.7,0.1-0.8-1c0-0.5,0-1.3-0.3-1.3c-0.4,0-0.7,1.2-1.1,4.2   c-0.3,2.2-1.6,4.7-2,4.4c-0.4-0.4-0.1-2.7-0.7-3.7c-0.1-0.2,0.2,2.5-1.8,4.6c-0.3,0.3-0.5,0.1-0.5,0c0.1-0.6,0.3-3.8-0.3-4.8   c-0.5-0.8-1.1-0.9-1.8-1.2c-0.7-0.3-1.2-1.2-1.4-1.8c-0.5-2.1,0.4-4.3,0.6-5c0.2-0.7,0.9-3.8,0.7-5c-0.3-1-0.7-1.9-0.1-3.4   c0.1-0.2,0.2-0.3,0-0.4c-1-0.7-1.6-1.3-1.9-2.8c-0.2-0.9,0-1.2-0.4-2c-0.1-0.3-0.4-0.5-0.3-0.7c0.2-0.2,0.5-0.2,0.8-0.2   c1.6,0.3,2.6,1.2,3.2,2.1c0.2-0.4,0.4-0.7,0.7-0.9c-0.1-1,0.4-1.7,1-2.4c-0.1-1.2,0.7-2,1.3-2.2c0.1-1,0.7-1.8,1.7-2.5   c0.7-1.6,1.7-2.1,2.3-2.4c0.6-0.3,1.5-0.7,3.1-1c0.7-0.1,0.8,0.3,0.5,0.6c-1,0.8-3.4,3.4-4.4,6.2c0.3-0.6,1.1-1.5,2-1.9   c0.5-1.4,1.8-2.1,2.6-2.5c0.4-0.8,1.4-1.9,2.9-2.2c1.6-1.4,4.2-1.3,4.6-1.3c0.5,0,1.2,0,1.3,0.5c0.2,0.7-7.8,4.8-9.1,13.2   c0,0.4,2-1.9,4.1-1.6c0.1,0.1,0.2,0.1,0.3,0.3c1,2.1,0,4.1,0.3,4.2c4.2,2.4,5.1,5.5,6.8,7.3c2.5,2.4,5.5,2.3,7.9,4.1   c2.3,1.7,5,7.2,6.4,8.4C67,41.7,72,45.4,76,51.7c0.5,0.8,0.9,1.3,1.9,1.4c2.2-0.1,4-2.7,5.5-5c0.1-0.1,0.2-0.2,0.3-0.1   c0.2,0.1,0.1,0.5,0.3,0.5c0.5,0.1,0.9-1.4,1.4-1.7c0.2-0.1,0.5,0,0.4,0.2c-0.1,0.5-0.5,1.2-0.5,1.6c0,0.1,0.1,0.1,0.1,0   c0.1-0.1,0.2-0.1,0.3-0.1c0.2,0,0.2,0.3,0.1,0.4c-0.2,0.3-0.3,0.7-0.4,1.1c0,0.3,0.3,0.1,0.4,0.2c0.2,0.1,0.2,0.4,0.1,0.7   c-0.6,1.4-2.5,6.4-7,5.7c-0.6-0.1-0.9-0.5-0.7,0.1C79.3,60.6,77.1,69,78,73c0.3,1.1,1.6,2.1,2,2.7c0.2,0.2,0.5,0.7,0.6,1.2   c0.3,3.4-0.6,3.7,1,10.1c0.1,0.5,0.1,0.9-0.2,1.2c-0.3,0.3-0.5,0.2-0.6,0.5c-0.2,2-1,3.7-2.2,4.1c-1.7,0.6-2.7-0.2-2.5-1.6   c0.5-2.5,1.7-3,2.1-5.6c0.3-2.2-1-4.4-1.4-5.2c-0.4-0.7-1.5-2.6-2.8-3.8c-0.2-0.2-0.3-0.2-0.4,0c-0.5,1.6,0,4.8,0.2,5.6   c0.4,1.3,0.8,3,0.7,4.1c-0.1,1.1-0.6,1.7-1.1,2.2c-0.8,0.8-0.3,2-1.7,2.6c-1.1,0.4-1.9,0.3-2.2,0.1c-0.3-0.2-0.5-0.3-0.5-0.7   c0-0.5,0.1-1.2,0.5-1.8c0.8-1,1.8-2.4,2-5c0.3-4.7-3.8-10.1-4.1-10.2c-0.3-0.1-0.2,0.2-0.4,0.1c-0.4-0.3-0.9-1.6-1.4-2.1   c-0.2-0.3-0.8-0.2-0.9-0.7c-0.1-0.4-0.2-0.7-0.5-0.9c-0.2-0.1-0.3,0.1-0.5,0c-0.5-0.4-0.5-1.8-0.7-1.9c-0.2-0.1-0.4,0.1-0.5,0   c-0.4-0.2-0.3-1.4-0.6-2.2c-0.1-0.4-0.6-0.4-0.7-1c-0.2-1-0.2-2.3-1.2-2.7c-1.1-0.5-1.8,0.2-2.3-0.6c-0.3-0.3-0.2-0.9-0.9-1   c-0.4-0.2-0.5-0.6-0.9-0.5c-0.2,0.1,0,0.4-0.4,0.6c-0.5,0-1-1.3-1.7-1.3c-0.2,0.1-0.3,0.4-0.6,0.4c-0.3,0-0.3-1.5-1.3-1.9   c-0.2-0.1-0.3,0.3-0.5,0C51.5,57.9,51.1,57.6,50.6,57.2"/>
	<path fill="none" stroke="#1D1D1B" stroke-width="0.127" d="M50.6,57.2c-0.4-0.5-0.9-1.1-0.9-1.1c-4.8-7-12.9-11.6-22-11.6l0,0.1   c-0.4,0.1-0.7,0.3-1.2,0.6c-0.8,0.4-1.7,0.5-2.5,0.5c-0.7,0-0.2-0.9-0.6-0.7c-0.5,0.1-1.5,0.5-2,0.8c0,1-3.2,2.1-4.9,1.3   c0.2-2.5,4.3-4.6,10.2-5.5c3.7-2.2,4.2-2.8,6.6-4.9c1.1-1,1.6-1.4,1.9-1.4c0.2-0.1,0-0.2-0.1-0.2c-0.3-0.1-0.5-0.4-0.6-0.6   c-0.2-0.4-0.1-0.9-0.3-1.1c-0.3-0.2-0.7-0.4-0.8-0.9c0-0.3,0-0.7-0.4-0.7c-0.5,0-0.7,0.1-0.8-1c0-0.5,0-1.3-0.3-1.3   c-0.4,0-0.7,1.2-1.1,4.2c-0.3,2.2-1.6,4.7-2,4.4c-0.4-0.4-0.1-2.7-0.7-3.7c-0.1-0.2,0.2,2.5-1.8,4.6c-0.3,0.3-0.5,0.1-0.5,0   c0.1-0.6,0.3-3.8-0.3-4.8c-0.5-0.8-1.1-0.9-1.8-1.2c-0.7-0.3-1.2-1.2-1.4-1.8c-0.5-2.1,0.4-4.3,0.6-5c0.2-0.7,0.9-3.8,0.7-5   c-0.3-1-0.7-1.9-0.1-3.4c0.1-0.2,0.2-0.3,0-0.4c-1-0.7-1.6-1.3-1.9-2.8c-0.2-0.9,0-1.2-0.4-2c-0.1-0.3-0.4-0.5-0.3-0.7   c0.2-0.2,0.5-0.2,0.8-0.2c1.6,0.3,2.6,1.2,3.2,2.1c0.2-0.4,0.4-0.7,0.7-0.9c-0.1-1,0.4-1.7,1-2.4c-0.1-1.2,0.7-2,1.3-2.2   c0.1-1,0.7-1.8,1.7-2.5c0.7-1.6,1.7-2.1,2.3-2.4c0.6-0.3,1.5-0.7,3.1-1c0.7-0.1,0.8,0.3,0.5,0.6c-1,0.8-3.4,3.4-4.4,6.2   c0.3-0.6,1.1-1.5,2-1.9c0.5-1.4,1.8-2.1,2.6-2.5c0.4-0.8,1.4-1.9,2.9-2.2c1.6-1.4,4.2-1.3,4.6-1.3c0.5,0,1.2,0,1.3,0.5   c0.2,0.7-7.8,4.8-9.1,13.2c0,0.4,2-1.9,4.1-1.6c0.1,0.1,0.2,0.1,0.3,0.3c1,2.1,0,4.1,0.3,4.2c4.2,2.4,5.1,5.5,6.8,7.3   c2.5,2.4,5.5,2.3,7.9,4.1c2.3,1.7,5,7.2,6.4,8.4C67,41.7,72,45.4,76,51.7c0.5,0.8,0.9,1.3,1.9,1.4c2.2-0.1,4-2.7,5.5-5   c0.1-0.1,0.2-0.2,0.3-0.1c0.2,0.1,0.1,0.5,0.3,0.5c0.5,0.1,0.9-1.4,1.4-1.7c0.2-0.1,0.5,0,0.4,0.2c-0.1,0.5-0.5,1.2-0.5,1.6   c0,0.1,0.1,0.1,0.1,0c0.1-0.1,0.2-0.1,0.3-0.1c0.2,0,0.2,0.3,0.1,0.4c-0.2,0.3-0.3,0.7-0.4,1.1c0,0.3,0.3,0.1,0.4,0.2   c0.2,0.1,0.2,0.4,0.1,0.7c-0.6,1.4-2.5,6.4-7,5.7c-0.6-0.1-0.9-0.5-0.7,0.1C79.3,60.6,77.1,69,78,73c0.3,1.1,1.6,2.1,2,2.7   c0.2,0.2,0.5,0.7,0.6,1.2c0.3,3.4-0.6,3.7,1,10.1c0.1,0.5,0.1,0.9-0.2,1.2c-0.3,0.3-0.5,0.2-0.6,0.5c-0.2,2-1,3.7-2.2,4.1   c-1.7,0.6-2.7-0.2-2.5-1.6c0.5-2.5,1.7-3,2.1-5.6c0.3-2.2-1-4.4-1.4-5.2c-0.4-0.7-1.5-2.6-2.8-3.8c-0.2-0.2-0.3-0.2-0.4,0   c-0.5,1.6,0,4.8,0.2,5.6c0.4,1.3,0.8,3,0.7,4.1c-0.1,1.1-0.6,1.7-1.1,2.2c-0.8,0.8-0.3,2-1.7,2.6c-1.1,0.4-1.9,0.3-2.2,0.1   c-0.3-0.2-0.5-0.3-0.5-0.7c0-0.5,0.1-1.2,0.5-1.8c0.8-1,1.8-2.4,2-5c0.3-4.7-3.8-10.1-4.1-10.2c-0.3-0.1-0.2,0.2-0.4,0.1   c-0.4-0.3-0.9-1.6-1.4-2.1c-0.2-0.3-0.8-0.2-0.9-0.7c-0.1-0.4-0.2-0.7-0.5-0.9c-0.2-0.1-0.3,0.1-0.5,0c-0.5-0.4-0.5-1.8-0.7-1.9   c-0.2-0.1-0.4,0.1-0.5,0c-0.4-0.2-0.3-1.4-0.6-2.2c-0.1-0.4-0.6-0.4-0.7-1c-0.2-1-0.2-2.3-1.2-2.7c-1.1-0.5-1.8,0.2-2.3-0.6   c-0.3-0.3-0.2-0.9-0.9-1c-0.4-0.2-0.5-0.6-0.9-0.5c-0.2,0.1,0,0.4-0.4,0.6c-0.5,0-1-1.3-1.7-1.3c-0.2,0.1-0.3,0.4-0.6,0.4   c-0.3,0-0.3-1.5-1.3-1.9c-0.2-0.1-0.3,0.3-0.5,0C51.5,57.9,51.1,57.6,50.6,57.2z"/>
	<path fill="#FFFFFF" d="M27,10.7c0.4-0.5,1.3-0.8,1.2-0.9c-0.1-0.2-0.4,0-0.6,0c-0.1,0-0.2,0-0.2-0.1c0.4-1.4,1.8-1.6,2.2-2.1   c0-0.1,0-0.1-0.1-0.1c-0.2,0-0.6,0.2-0.6,0c0.2-1.4,1.8-2.1,2.2-2.2c0.1-0.1,0-0.2-0.1-0.2c-0.1,0-0.3,0.1-0.3-0.1   c0.2-0.7,1.1-1.2,1.7-1.5c0.6-0.2,1.8-0.6,1.8-0.4c0,0.1-0.9,0.5-1.2,1c-0.3,0.4-0.5,0.6-0.5,1.2c-1,0.5-1.4,1.5-1.5,2.5   c-0.7,0.4-1.2,1.6-1,2.1c-0.8,0.8-1.2,1.9-1.1,3c-1.7,2.2-1.2,3.1,0.7,3.8c0.3,0.1,0.5,0.1,0.6,0c0.1-0.1-0.2-0.2-0.2-0.4   c-1-2.3,0.3-3.4,2.1-4.2c0.1-0.1,0-0.2-0.2-0.2c-0.5,0-0.9,0.1-1,0c-0.3-0.7,1.7-2.3,2.6-2.6c0.4-0.1,0.2-0.3,0.1-0.3   c-0.3,0-0.6,0.1-0.8-0.2c0.2-0.8,2.5-1.9,2.9-2.1c0.2-0.1,0.3-0.4-0.7-0.2c-0.1,0-0.2,0-0.2-0.1c0.2-0.6,2.3-1.4,3.4-1.8   c0.2-0.1,0.2-0.4-0.3-0.2c-0.2,0-0.5,0.2-0.6,0c0.1-0.8,2.4-1.4,3.3-1.6c0.2-0.1,0.2-0.2,0.1-0.3c-0.3-0.1-0.7,0.1-0.5-0.2   c0.6-0.4,2.3-0.4,2.9-0.3c0.2,0,0.2,0.1,0.2,0.1c-0.2,0.4-3,1.3-3.4,3c-0.9,0.4-1.7,1.2-1.8,1.9c-0.4,0.2-1.3,1-1.4,2   c-0.5,0.4-1.8,1.5-1.3,2.9C34.5,12.4,34,13,34,14.8c0,0.6-0.8,1.6-1.6,1.9c-0.2,0.1-0.1,0.3,0,0.3c1.4,0.4,2.7-0.3,3.2-0.8   c1.6-1.5,2.7-2.1,3.4-2.2c0.1,0,0.1,0.1,0.2,0.1c0.1,0.4,0.4,1.4,0,2.8c-0.5,1.7-1.8,2.5-2.1,3c-0.1,0.1,0.2,0.8,0.1,1.2   c-0.2,0.5,0,0.8,0.2,0.8c0.5,0.2,0.8-1.6,1.1-1.6c0.2,0,0.2,0.4,0.5,0.5c0.1,0.1,0.4,0,0.4-0.2c0-0.5,0.2-1.7,0.3-1.8   c0.1-0.1,0.4,0.4,0.4,0.8c0,1.4-0.8,2.6-0.3,3.5c0.1,0.2,0.3,0.2,0.5,0c0.4-0.4,0.7-2.1,1.6-2.3c1.3-0.3,2.5,3.2,1.6,4.1   c-0.4,0.4-1,0-1.5,0.3c-0.6,0.3-0.5,1.6-0.9,2.1c-0.2,0.2-0.5,0.3-1,0.3c-1.1,0.1-0.8,3.3-0.6,3.9c0.1,0.3,0.4,0.3,0.5,0.2   c0.2-0.1,0.3-0.8,0.3-1.4c0-0.2,0.4-0.3,0.6-0.5c0.3-0.2,0.1-0.4,0.3-0.6c0.2-0.3,0.5,0,0.6-0.3c0.5-0.4,0.1-1,0.5-1.3   c0.6-0.4,1.1-0.2,1.6-0.8c0.3-0.4,0.4-1.1,0.8-1.2c2.4-0.1,4.7,2.7,5.1,3.5c1.2,2.4-0.7,6.1,0.6,6.7c1.6,0.9,1.3,2.7,1.1,3.2   c-0.3,0.9-2.9,2.1-3.2,4.2c-0.2,2.1,0.9,1.6,1,1.4c0.1-0.3,0.2-0.6,0.3-0.9c0.1-0.2,0.4-0.1,0.5,0.1c0.1,0.2,0.5,0.7,1.1-0.5   c0.4-0.8,1.5-1.8,2.3-2.3c0.8-0.6,1-2.4,1.2-2.8c0.1-0.4,0.4-0.4,0.4-0.7c0-0.4-0.7-1.7-0.3-2.6c0.2-0.3,0.7-0.5,1.1-0.1   c0.4,0.4-0.2,1.9,0.5,2c0.6,0,0.7-0.7,1.2-0.6c0.5,0.1-0.4,2,0.1,2.3c0.3,0.1,0.7,0,0.9,0.3c0.1,0.5-0.8,1.5,0,1.5   c8.8-0.2,12,6.7,11.4,8c-0.3,0.5-1.3-0.2-1.5,0.2c-0.8,2.7,1,4.7,1.5,5.1c0.2,0.1,0.4,0,0.4-0.4c-0.1-0.8-0.5-1.2-0.4-1.9   c0.1-1.3,3.1-0.5,3.3,0.5c0.1,0.4,0.1,0.7,0.4,1c0.4,0.4,1.4-0.1,1.5,0.8c0.1,1.7-2,1.8-3.5,2.9c-0.7,0.5-0.6,0.9,0.1,1.1   c0.7,0.2,1.9,0,2.4,0.8c0.8,1.2-0.3,3.7-0.3,4.7c-0.1,1.1,1.8,4.1,1.9,5.7c0.1,0.8-0.4,1.2-1.1,0.6c-0.6-0.7-1.3-1.7-1.8-2.5   c-0.1-0.2-0.5-0.3-0.5,0.2c0,1.4,6.4,9.8,6.6,11.2c0.1,0.7-0.3,1.3-0.1,2c0.1,0.2,0.3,0.1,0.3,0.3c0,0.5-0.4,1.2,0.2,1.5   c0.3,0.9,0,1.3,0.2,2.1c0.1,0.8,0.4,1.8,0.5,2.6c-0.2,2.2-1,3-1.7,3.3c-0.6,0.3-0.8-0.2-0.8-0.7c0.2-1.3,1.6-3.6,1-6.3   c-1.5-6.8-8.7-11.5-9.9-14.1c-0.4-1-1.8-1.1-1.8-2.2c-0.1-0.4-0.5-0.3-0.8-0.6c-0.3-0.3-0.3-1.2-0.5-1.8c-0.1-0.2-0.3-0.1-0.5-0.3   c-1-1.4-0.8-8-1.7-8.9c-0.7-0.4-1.2,0.7-2,0.8c-0.6,0.1-1.7-1.5-2.1-1.1c-0.3,0.3-0.2,1.1-0.2,1.3c0,0.1,0.2,0.7,0,0.7   c-0.2,0-0.5-0.4-1.3-0.7c-0.5-0.2-1.1,0-1.3-0.2c-0.6-0.6,0-1.9-0.9-2.2c-0.3-0.1-0.3-0.8-0.4-1c-0.1-0.2-0.4-0.2-0.5-0.3   c-0.3-0.4-0.4-0.8-0.5-1.4c-0.1-0.4-0.9,0.1-1-0.5c-0.1-0.4-0.5-0.5-0.9-0.6c-0.4-0.1-0.2-1-0.6-1.2c-0.2-0.1-0.2,0.1-0.4,0   c-0.2-0.2-0.1-0.4-0.4-0.6c-0.2-0.1-0.4,0.1-0.5-0.1c-0.5-0.7-0.1-1.8-0.4-2.1c-0.2-0.2-0.5,0-0.8-0.2c-0.3-0.2-0.3-0.6-0.5-0.6   c-0.5,0-0.7-0.1-0.8-0.3c-0.9-1.2-0.8-2.6-1.1-3.2c-0.2-0.3-0.5-0.5-0.7,0.1c-0.4,1.1-0.4,5.1-1.7,5.6c-1,0.5-1.9-1.2-2.3-1.5   c-0.2-0.1-0.3,0.2-0.4,0.3c-0.4-0.2-0.3-0.7-0.7-0.9c-0.4-0.2-0.2,0.3-0.4,0.3c-0.4-0.3-0.4-1.2-0.7-1.3c-0.3-0.1-0.4,0.2-0.5,0.1   c-0.5-0.4-0.2-1.4-0.8-1.7c-0.3-0.1-0.2,0.4-0.5,0.2c-0.3-0.1-0.2-1.5-1-1.4c-0.1,0-0.1-0.2-0.2-0.2c-0.2,0-0.4,0.3-0.7,0.1   c-0.3-0.5-0.6-0.7-0.8-0.8c-0.3-0.3-0.9,0.1-1.3-0.2c-1.5-0.7-4.9,2-6.4,3.5c-0.6-0.5-1.3,0-1.9,0.1c-0.2,0.1-0.9,0-0.4-0.8   c1.4-1.5,2.4-1.4,5-3.3c1.9-1.4,3.6-2.8,4.3-3.2c0.5-0.3,1.3-0.5,2,0.4c1,1.3,3.1,3.4,4,3.8c1.9,0.8,2-0.6,2.2-1.1   c0.2-0.5,0.3-0.1,0.3,0.4c0,0.3,0.1,0.8,0.4,0.8c0.5,0.1,0.5-0.3,0.6-0.6c0.6-2.3,2.9-5.1,3.7-4.5c0.7,0.4,1,0.4,1.2-0.4   c0.2-1-0.6-2-0.8-3c-0.2-1.2-0.1-2.9-0.6-3.1c-0.3-0.1-0.7,0.2-0.9,0.5c-0.3,0.4-0.3,0.8-0.4,1.2c0,0.3-1.1,0.5-1.2,1.9   c0,0.2-0.4-0.2-0.7,0c-0.6,0.4-0.5,2.6-0.7,2.7c-0.2,0-0.5-0.2-0.6,0.1c0,0.4-0.1,1.2-0.3,1.3c-0.1,0-0.3-0.1-0.5,0   c-0.5,0.4-0.3,1-0.8,1.5c-0.3,0.4-0.5,0.1-0.5-0.2c-0.1-0.5-0.5-1.3-0.9-1.7c-1.1-1.1-0.4-3.1-2-3.8c-0.5-0.2-0.5-0.5-0.5-0.9   c0-0.5-0.3-0.8-0.5-0.8c-0.4-0.1-0.5-0.4-0.5-0.7c0-0.8-0.6-0.8-0.9-0.9c-0.8-0.1-0.8-0.2-0.5-2.1c0.1-0.5,0.1-1-0.1-1.4   c-0.4-0.6-1.3-0.2-1.2-1.2c0.1-0.6,1.2-1.5,1.7-2c0.3-0.3,0.5-1.2-0.5-1c-2.3,0.6-4.1,4.7-4.5,5.4c-1.7,3-3.1,4.2-4.4,4.7   c-0.6,0.2-2.8,0.4-3.3-1.7c-0.2-1.1,0-2.2,0.6-3.9c2.2-7.7-0.3-6.2,0.9-8.8c0.8-0.9,1.9-0.8,3-0.9c0.2,0,0.2-0.4,0.1-0.5   c0-0.1-0.3-0.2-0.6-0.3c-0.3-0.1-1.1-0.7-1.1-1.4c-0.1-0.8,0.4-1.2,0.8-1.6c0.5-0.5,0.8-0.5,0.8-0.6c0-0.4-0.9,0.2-1,0   C26.1,11.7,26.7,11.1,27,10.7"/>
	<path fill="#FFFFFF" d="M24.6,14.7c0,0.3,0,0.7,0.3,1.6c-0.4,0.1-0.6,0.4-0.9,0.2c-1-0.6-1.6-1.6-1.9-2.6c-0.2-0.6-0.2-1.3-0.5-1.9   C23.4,12.1,24.7,14.5,24.6,14.7"/>
	<path fill="#1D1D1B" d="M38.8,15c0.1,0,0.1,0,0.1,0.1c-0.1,1.3-1.4,3.8-3.1,4.2c-0.1,0-0.2,0-0.2-0.1c-0.2-0.9,0.4-2.4,1.8-2.9   C38.1,16,38.4,15.6,38.8,15"/>
	<path fill="#1D1D1B" d="M33,19.9c0.1,0.3,0,0.3-0.3,0.2c-0.9-0.9-1.7-0.7-2.2-0.4c-0.3,0.1-0.3,0.1-0.3-0.1   C31.1,18.3,32.6,18.9,33,19.9"/>
	<path fill="#1D1D1B" d="M28.3,20.1c0.5,0.7,0.3,1.7-0.1,2.4c-0.3,0.6-0.8,1.5-1,1.9c-0.1,0.2-0.3,0.3-0.4,0.2   c-0.1,0,0.6-1.2,0.8-2.6c0.1-0.6-0.1-1.4,0.3-2C28,19.9,28.2,20,28.3,20.1"/>
	<path fill="#1D1D1B" d="M32.1,20.7c0.3,0.8-0.5,1.1-1,1.2c-0.3,0.1-0.6,0-0.9-0.2c-0.2-0.1-0.1-0.2-0.2-0.2c-0.3,0-0.2,0.1-0.5,0.2   c-0.2,0-0.2-0.1-0.1-0.3c0.3-0.5,0.5-0.9,1-1.1C31,20.2,31.7,20,32.1,20.7"/>
	<path fill="#1D1D1B" d="M29.5,23.9c0.4,1.5,0.1,2.1-0.2,2.5c-0.1,0.1-1,0.3-1.1-0.8c0.4-0.5,0.7-1.3,0.9-1.8   C29.3,23.5,29.4,23.5,29.5,23.9"/>
	<path fill="#1D1D1B" d="M26.4,28.2c-0.2,1-0.6,1.5-1.3,1.6c-0.8,0.1-1.1-0.8-1-0.8c0.8,0.1,1.6-0.3,2.1-0.9   C26.3,27.9,26.5,28,26.4,28.2"/>
	<path fill="#1D1D1B" d="M65.5,43.1c0.4,0.1,0.6,0.6,0.5,0.8c-0.2,0.4-0.6,0.7-0.6,1.1c0,0.3-0.1,0.5-0.3,0.6   c-0.5,0.1-0.8-1-1.2-0.3c-0.2,0.4-0.7,0.1-0.8-0.1c-0.1-0.3-0.3-0.6-0.6-0.7c-1,0-1.3-1.6-1.1-2.1C62.1,40.7,64,42.6,65.5,43.1"/>
	<path fill="#FFFFFF" d="M24.9,42.8c-0.5,0.4-0.9,0.9-1.2,1.5c-0.6,0.1-1.7,0.5-2.5,0.9c-0.3,0.1-1.3,0.2-2.3,0.3   c-0.1,0-0.2-0.1-0.2-0.2c-0.1-0.7,4.4-2.6,6.1-2.7C25.1,42.5,25.2,42.6,24.9,42.8"/>
	<path fill="#FFFFFF" d="M84.1,52.1c0.1,0.4-0.2,0.8-0.6,1.3c-0.4,0.5-2.1,1.7-3.5,1.6c-0.4-0.1-0.8-0.5-0.7-1   c0.1-0.4,1.5-0.6,2.6-0.9c0.8-0.3,1.1-0.4,1.7-0.9C83.9,51.8,84,52,84.1,52.1"/>
	<path fill="#FFFFFF" d="M71.9,78.8c0.3,0,0.2-0.1,0.4,0c0.2,0,0.2,0.9,0.2,1.3c0,0.3-0.1,0.7,0.2,1c0.3,0.2-0.3,1.1,0.1,1.5   c0.2,0.3-0.3,1.2,0.1,1.7c0.2,0,0.3,0.1,0.4,0.2c-0.2,1,0.3,2.6,0.1,3.1c-0.4,0.7-0.8,0.6-1.2,1.8c-0.6,1.1-2.2,0.4-1.9-0.5   c1.1-1.9,1.6-4.1,1.6-5.1c0.2-2.5-1.1-6.4-1.2-6.9c0-0.5,0.1-0.8,0.5-0.3C71.9,77.5,71.6,78.8,71.9,78.8"/>
	<path fill="#FFFFFF" d="M30.1,58L30,58.2c0,0-1.2-1.9-1.5-2.2c0,0.5-0.6,7.8-0.6,7.8h-0.2c0,0-0.6-7.3-0.6-7.8   c-0.3,0.4-1.5,2.2-1.5,2.2S23,46.3,22.8,45.5C22.6,46.3,20,58.2,20,58.2s-1.2-1.9-1.5-2.2c0,0.6-2.6,33.3-2.6,33.3s0,0,0,0   c3.5,2.3,7.6,3.6,11.9,3.6h0c4.3,0,8.4-1.2,11.9-3.6v0c0,0-2.4-30.1-2.6-33.3c-0.3,0.4-1.5,2.2-1.5,2.2s-2.6-11.9-2.8-12.7   C32.6,46.3,30.1,58,30.1,58"/>
	<path fill="#1D1D1B" d="M39.8,89.3l-2.7-33.6l-1.5,2.3l-2.8-13l-2.8,13l-1.5-2.3l-0.7,8.1l-0.6-8.1l-1.5,2.3l-2.8-13l-2.8,13   l-1.5-2.3l-2.7,33.6v0.1c3.4,2.3,7.6,3.6,12,3.6h0c4.4,0,8.6-1.3,12-3.6V89.3z"/>
	<polygon fill="#FFFFFF" points="50.4,70 47,58.1 4.7,70.1 7.4,82.1  "/>
	<polygon fill="#E20613" points="12.7,69.3 18.2,67.6 17.3,78.1 13.4,79.2 14.1,72.1 12.4,72.6  "/>
	<path fill="#E20613" d="M23,74.9c-0.1,1.1-1.2,2-2.3,2.3c-1.1,0.3-2.1,0-2-1.1c0.1-1.1,1.3-2.1,2.3-2.4   C22.1,73.5,23.1,73.8,23,74.9"/>
	<polygon fill="#E20613" points="25.6,65.6 32.8,63.5 32.5,66.5 29.2,67.4 29.1,68.5 32,67.7 31.7,70.4 28.9,71.2 28.5,74.9    24.6,76  "/>
	<path fill="#E20613" d="M42,65.1c-0.6-0.4-1.3-0.6-2.2-0.4c-1.2,0.3-2.2,1.5-2.3,2.6c-0.1,1.1,0.8,1.7,2,1.4   c0.9-0.2,1.6-0.8,2.3-1.6l-0.5,3.9c-0.6,0.5-2.1,1-2.8,1.2c-3.1,0.9-5.2-0.8-5-3.7c0.3-3.1,3-6.2,6.1-7.1c0.9-0.2,1.8-0.4,2.6-0.3   L42,65.1z"/>
	<path fill="#FFFFFF" d="M25.1,79c0,0.4-0.3,0.8-0.7,0.9c-0.3,0.1-0.5-0.2-0.5-0.6c0-0.4,0.3-0.8,0.6-0.9   C24.9,78.3,25.1,78.6,25.1,79 M26.8,78.5c0,0.4-0.3,0.8-0.6,0.9c-0.3,0.1-0.5-0.2-0.5-0.6c0-0.4,0.3-0.8,0.6-0.9   C26.6,77.8,26.8,78.1,26.8,78.5 M27.9,82.9c-0.2,2.2-1.6,3.9-3.2,4.4c-1.6,0.5-2.8-0.5-2.6-2.7c0.2-2.2,1.6-3.9,3.2-4.4   C26.8,79.7,28,80.7,27.9,82.9 M24,84c-0.1,0.8,0.3,1.2,0.9,1.1c0.6-0.2,1-0.8,1.1-1.6c0.1-0.8-0.3-1.3-0.9-1.1   C24.5,82.6,24.1,83.3,24,84"/>
	<polygon fill="#FFFFFF" points="28.8,79.2 30.7,78.7 30.3,83.4 31.9,83 31.7,85.2 28.2,86.1  "/>
	<path fill="#FFFFFF" d="M32.8,78.1l1.8-0.5L36,81h0c0-0.6-0.1-1.1,0-1.7l0.2-2.1l1.8-0.5l-0.6,6.9l-1.8,0.5l-1.4-3.1l-0.1,0   c0,0.5,0,0.9,0,1.4L34,84.5L32.2,85L32.8,78.1z"/>
	<path fill="#FFFFFF" d="M17.5,82.4l1.8-0.5l-0.3,3l0,0c0.1-0.3,0.2-0.6,0.3-0.9l1.1-2.5l2.1-0.6l-1.9,3.8l1.5,3l-2.2,0.6l-0.7-1.8   c-0.1-0.2-0.2-0.4-0.2-0.7l-0.1,0l-0.2,2.9l-1.8,0.5L17.5,82.4z"/>
</g>
</svg>